<svg width="144" height="56" viewBox="0 0 144 56" fill="none" xmlns="http://www.w3.org/2000/svg">
<rect x="1" y="1" width="54" height="54" rx="27" fill="#FAFAFA"/>
<rect x="1" y="1" width="54" height="54" rx="27" stroke="#2B2B2B" stroke-width="2"/>
<path d="M23.5 42.5C25.9853 42.5 28 40.4853 28 38V33.5H23.5C21.0147 33.5 19 35.5147 19 38C19 40.4853 21.0147 42.5 23.5 42.5Z" fill="#0ACF83"/>
<path d="M19 29C19 26.5147 21.0147 24.5 23.5 24.5H28V33.5H23.5C21.0147 33.5 19 31.4853 19 29Z" fill="#A259FF"/>
<path d="M19 20C19 17.5147 21.0147 15.5 23.5 15.5H28V24.5H23.5C21.0147 24.5 19 22.4853 19 20Z" fill="#F24E1E"/>
<path d="M28 15.5H32.5C34.9853 15.5 37 17.5147 37 20C37 22.4853 34.9853 24.5 32.5 24.5H28V15.5Z" fill="#FF7262"/>
<path d="M37 29C37 31.4853 34.9853 33.5 32.5 33.5C30.0147 33.5 28 31.4853 28 29C28 26.5147 30.0147 24.5 32.5 24.5C34.9853 24.5 37 26.5147 37 29Z" fill="#1ABCFE"/>
<rect x="45" y="1" width="54" height="54" rx="27" fill="#FAFAFA"/>
<rect x="45" y="1" width="54" height="54" rx="27" stroke="#2B2B2B" stroke-width="2"/>
<g clip-path="url(#clip0_7294_14062)">
<path fill-rule="evenodd" clip-rule="evenodd" d="M88 19L78.4274 37H69.4359L73.4422 29.5401H73.2623C69.9573 33.6665 65.026 36.3832 58 37V29.6433C58 29.6433 62.4947 29.3878 65.1372 26.7158H58V19.0004H66.0213V25.3461L66.2013 25.3453L69.4791 19.0004H75.5456V25.306L75.7255 25.3057L79.1264 19H88Z" fill="#146EF5"/>
</g>
<rect x="89" y="1" width="54" height="54" rx="27" fill="#FAFAFA"/>
<rect x="89" y="1" width="54" height="54" rx="27" stroke="#2B2B2B" stroke-width="2"/>
<g clip-path="url(#clip1_7294_14062)">
<path d="M126 15V24.3333H116L106 15H126ZM106 24.3333H116L126 33.6667H116V43L106 33.6667V24.3333Z" fill="#2A2A2A"/>
</g>
<defs>
<clipPath id="clip0_7294_14062">
<rect width="30" height="18" fill="white" transform="translate(58 19)"/>
</clipPath>
<clipPath id="clip1_7294_14062">
<rect width="18" height="26" fill="white" transform="translate(107 16)"/>
</clipPath>
</defs>
</svg>
